<svg xmlns="http://www.w3.org/2000/svg" width="24" height="24" viewBox="0 0 24 24" fill="none">
  <defs>
    <linearGradient id="g" x1="0" y1="0" x2="24" y2="24" gradientUnits="userSpaceOnUse">
      <stop offset="0%" stop-color="#c8945a"/>
      <stop offset="100%" stop-color="#6b3f19"/>
    </linearGradient>
  </defs>
  <!-- Gear (semi-transparent layer) -->
  <path fill="url(#g)" fill-opacity="0.45" d="M19.14 12.94c.04-.3.06-.61.06-.94s-.02-.64-.06-.94l2.03-1.58a.49.49 0 0 0 .12-.61l-1.92-3.32a.49.49 0 0 0-.59-.22l-2.39.96a7 7 0 0 0-1.62-.94l-.36-2.54A.48.48 0 0 0 14 3h-4a.48.48 0 0 0-.48.41l-.36 2.54a7 7 0 0 0-1.62.94l-2.39-.96a.48.48 0 0 0-.59.22L2.64 9.47a.47.47 0 0 0 .12.61l2.03 1.58c-.04.3-.06.62-.06.94s.02.64.06.94l-2.03 1.58a.49.49 0 0 0-.12.61l1.92 3.32c.12.22.37.3.59.22l2.39-.96c.5.36 1.04.67 1.62.94l.36 2.54c.05.24.27.41.48.41h4c.24 0 .44-.17.48-.41l.36-2.54a7 7 0 0 0 1.62-.94l2.39.96c.22.08.47 0 .59-.22l1.92-3.32a.47.47 0 0 0-.12-.61l-2.03-1.58zM12 15.6A3.6 3.6 0 1 1 12 8.4a3.6 3.6 0 0 1 0 7.2z"/>
  <!-- Wrench (solid layer) -->
  <path fill="url(#g)" d="M3.9 19.1a1.5 1.5 0 0 0 2.12 0l5.3-5.3A4.5 4.5 0 0 1 16.5 7a4.44 4.44 0 0 1 1.13.15L15 9.76l.24 1 1 .24 2.61-2.62A4.5 4.5 0 0 1 12.43 14l-5.28 5.28a1.5 1.5 0 0 1-2.12 0l-1.13-1.18z"/>
</svg>
