<svg xmlns="http://www.w3.org/2000/svg" width="24" height="24" viewBox="0 0 24 24" fill="none">
  <defs>
    <linearGradient id="g" x1="2" y1="2" x2="22" y2="22" gradientUnits="userSpaceOnUse">
      <stop offset="0%" stop-color="#d4a06a"/>
      <stop offset="100%" stop-color="#6b3f19"/>
    </linearGradient>
  </defs>
  <!-- Rounded square background -->
  <rect x="2" y="2" width="20" height="20" rx="6" fill="url(#g)"/>
  <!-- Wrench icon (white) -->
  <path fill="#fff" fill-opacity="0.95" d="M15.73 8.27a3.5 3.5 0 0 0-4.17-.58l2.2 2.2-.71.71-2.2-2.2a3.5 3.5 0 0 0 4.17 4.17l2.68 2.68a1 1 0 0 0 1.42-1.42l-2.68-2.68a3.5 3.5 0 0 0 .58-4.17l-2.2 2.2-.71-.71 2.2-2.2a3.5 3.5 0 0 0-.58 0z"/>
  <!-- Dot grid (subtle decoration) -->
  <circle cx="7" cy="17" r="1" fill="#fff" fill-opacity="0.5"/>
  <circle cx="7" cy="13.5" r="1" fill="#fff" fill-opacity="0.35"/>
  <circle cx="10.5" cy="17" r="1" fill="#fff" fill-opacity="0.35"/>
</svg>
